<?xml version="1.0" encoding="UTF-8" standalone="no"?>
<!-- Created with Inkscape (http://www.inkscape.org/) -->

<svg
   width="87.346115mm"
   height="86.292824mm"
   viewBox="0 0 87.346116 86.292824"
   version="1.1"
   id="svg1"
   xml:space="preserve"
   inkscape:version="1.4.3 (0d15f75042, 2025-12-25)"
   sodipodi:docname="icon.svg"
   xmlns:inkscape="http://www.inkscape.org/namespaces/inkscape"
   xmlns:sodipodi="http://sodipodi.sourceforge.net/DTD/sodipodi-0.dtd"
   xmlns:xlink="http://www.w3.org/1999/xlink"
   xmlns="http://www.w3.org/2000/svg"
   xmlns:svg="http://www.w3.org/2000/svg"><sodipodi:namedview
     id="namedview1"
     pagecolor="#ffffff"
     bordercolor="#000000"
     borderopacity="0.25"
     inkscape:showpageshadow="2"
     inkscape:pageopacity="0.0"
     inkscape:pagecheckerboard="0"
     inkscape:deskcolor="#d1d1d1"
     inkscape:document-units="mm"
     inkscape:zoom="1.4142136"
     inkscape:cx="67.882251"
     inkscape:cy="158.03836"
     inkscape:window-width="1920"
     inkscape:window-height="1020"
     inkscape:window-x="20"
     inkscape:window-y="20"
     inkscape:window-maximized="0"
     showguides="true"
     inkscape:current-layer="layer1"><sodipodi:guide
       position="11.169788,45.138437"
       orientation="0,-1"
       id="guide7052"
       inkscape:locked="false" /><sodipodi:guide
       position="43.518673,73.126377"
       orientation="1,0"
       id="guide7062"
       inkscape:locked="false" /><sodipodi:guide
       position="33.150503,78.738597"
       orientation="0,-1"
       id="guide7218"
       inkscape:locked="false" /><sodipodi:guide
       position="9.9185144,36.420207"
       orientation="1,0"
       id="guide7219"
       inkscape:locked="false" /><sodipodi:guide
       position="77.118826,11.538266"
       orientation="0,-1"
       id="guide7220"
       inkscape:locked="false" /><sodipodi:guide
       position="77.118826,35.282327"
       orientation="1,0"
       id="guide7221"
       inkscape:locked="false" /></sodipodi:namedview><defs
     id="defs1"><linearGradient
       id="linearGradient7065"
       inkscape:collect="always"><stop
         style="stop-color:#cedee7;stop-opacity:0.1;"
         offset="0"
         id="stop7064" /><stop
         style="stop-color:#aac8d3;stop-opacity:0.30000001;"
         offset="0.63410521"
         id="stop7065" /></linearGradient><inkscape:path-effect
       effect="offset"
       id="path-effect7064"
       is_visible="true"
       lpeversion="1.3"
       linejoin_type="miter"
       unit="mm"
       offset="0"
       miter_limit="4"
       attempt_force_join="false"
       update_on_knot_move="true" /><linearGradient
       id="linearGradient7043"
       inkscape:collect="always"><stop
         style="stop-color:#70d3d8;stop-opacity:1;"
         offset="0"
         id="stop7043" /><stop
         style="stop-color:#20868b;stop-opacity:1;"
         offset="0.63410521"
         id="stop7044" /></linearGradient><linearGradient
       id="linearGradient7041"
       inkscape:collect="always"><stop
         style="stop-color:#18556b;stop-opacity:1;"
         offset="0"
         id="stop7041" /><stop
         style="stop-color:#53cace;stop-opacity:1;"
         offset="1"
         id="stop7042" /></linearGradient><linearGradient
       inkscape:collect="always"
       xlink:href="#linearGradient7041"
       id="linearGradient7042"
       x1="127.24368"
       y1="174.9563"
       x2="81.383797"
       y2="122.20054"
       gradientUnits="userSpaceOnUse"
       gradientTransform="matrix(1.0523392,0,0,1.0523392,-22.101854,42.664699)" /><linearGradient
       inkscape:collect="always"
       xlink:href="#linearGradient7043"
       id="linearGradient7044"
       x1="110.44352"
       y1="212.70238"
       x2="64.899689"
       y2="185.33687"
       gradientUnits="userSpaceOnUse" /><linearGradient
       inkscape:collect="always"
       xlink:href="#linearGradient7065"
       id="linearGradient7064"
       gradientUnits="userSpaceOnUse"
       x1="110.44352"
       y1="212.70238"
       x2="64.899689"
       y2="185.33687"
       gradientTransform="matrix(0.96201816,0,0,0.96201816,3.859095,7.956006)" /></defs><g
     inkscape:label="Layer 1"
     inkscape:groupmode="layer"
     id="layer1"
     transform="translate(-44.152926,-156.01314)"><circle
       style="display:inline;fill:#1b4555;fill-opacity:0.1;stroke:none;stroke-width:4.99999;stroke-dasharray:none;stroke-opacity:1"
       id="circle7109"
       cx="87.936172"
       cy="199.48265"
       r="2.645457" /><path
       style="display:inline;fill:#1b4555;fill-opacity:1;stroke:none;stroke-width:4.99999;stroke-dasharray:none;stroke-opacity:1"
       d="m 86.8838,198.35816 0.299519,-12.21159 h 0.841899 l 0.343456,12.21159 z"
       id="path7110"
       sodipodi:nodetypes="ccccc" /><path
       style="display:inline;fill:#1b4555;fill-opacity:0.1;stroke:none;stroke-width:6.36798;stroke-dasharray:none;stroke-opacity:1"
       d="m 92.778928,203.17358 -1.065371,1.13251 -16.518016,-15.90592 0.410805,-0.42276 z"
       id="path7109"
       sodipodi:nodetypes="ccccc"
       inkscape:label="shadow_seconds" /><g
       id="g7681"
       inkscape:label="interpolate"><path
         d="m 128.342,208.706 c 0,8.405 -3.407,16.015 -8.915,21.524 -5.507,5.509 -13.117,8.917 -21.522,8.919 h -0.0061 c -8.0721,0 -15.8136,-3.206 -21.5224,-8.912 l -0.0042,-0.005 c -5.7078,-5.707 -8.915,-13.448 -8.9166,-21.52 v -0.006 c 0,-8.074 3.2074,-15.818 8.9166,-21.527 5.7092,-5.709 13.4526,-8.916 21.5266,-8.916 h 8e-4 c 16.8133,0 30.4423,13.63 30.4423,30.443 z"
         style="fill:none;fill-opacity:0;stroke:#1b4555;stroke-width:6.31403px;stroke-opacity:0"
         id="path7650" /><path
         d="m 128.331,208.696 c 0,8.405 -3.406,16.015 -8.914,21.524 -5.508,5.509 -13.118,8.917 -21.5226,8.919 h -0.0062 c -8.072,0 -15.8135,-3.206 -21.5223,-8.913 l -0.0042,-0.004 c -5.7078,-5.708 -8.915,-13.448 -8.9166,-21.52 v -0.006 c 0,-8.075 3.2076,-15.818 8.9166,-21.527 5.709,-5.709 13.4522,-8.916 21.5265,-8.916 h 8e-4 c 16.813,0 30.442,13.63 30.442,30.443 z"
         style="fill:none;fill-opacity:0;stroke:#1b4555;stroke-width:6.31403px;stroke-opacity:4.16475e-05"
         id="path7651" /><path
         d="m 128.299,208.666 c 0,8.404 -3.405,16.014 -8.914,21.524 -5.509,5.51 -13.119,8.917 -21.5226,8.919 h -0.0061 c -8.0721,0 -15.8136,-3.206 -21.5224,-8.913 l -0.0042,-0.004 c -5.7078,-5.708 -8.915,-13.449 -8.9165,-21.521 v -0.006 c 0,-8.075 3.2082,-15.818 8.9166,-21.526 5.7083,-5.708 13.4511,-8.917 21.5265,-8.917 h 8e-4 c 16.8129,0.001 30.4419,13.63 30.4419,30.444 z"
         style="fill:none;fill-opacity:0;stroke:#1b4555;stroke-width:6.31403px;stroke-opacity:0.00016647"
         id="path7652" /><path
         d="m 128.246,208.615 c 0,8.403 -3.405,16.014 -8.914,21.525 -5.51,5.51 -13.121,8.917 -21.5228,8.918 H 97.803 c -8.072,0 -15.8135,-3.206 -21.5223,-8.912 l -0.0042,-0.004 c -5.7078,-5.708 -8.915,-13.449 -8.9165,-21.521 v -0.006 c 0,-8.077 3.2092,-15.819 8.9166,-21.526 5.7073,-5.708 13.4494,-8.917 21.5265,-8.917 h 8e-4 c 16.8131,0 30.4421,13.63 30.4421,30.443 z"
         style="fill:none;fill-opacity:0;stroke:#1b4555;stroke-width:6.31403px;stroke-opacity:0.000374588"
         id="path7653" /><path
         d="m 128.172,208.545 c 0,8.4 -3.404,16.012 -8.915,21.524 -5.511,5.512 -13.123,8.917 -21.5223,8.919 h -0.0062 c -8.072,0 -15.8136,-3.206 -21.5223,-8.913 l -0.0042,-0.004 c -5.7078,-5.708 -8.915,-13.449 -8.9165,-21.521 v -0.006 c 0,-8.079 3.2107,-15.82 8.9166,-21.526 5.7058,-5.706 13.447,-8.917 21.5265,-8.917 h 8e-4 c 16.8126,0.001 30.4426,13.631 30.4426,30.444 z"
         style="fill:none;fill-opacity:0;stroke:#1b4555;stroke-width:6.31403px;stroke-opacity:0.000666001"
         id="path7654" /><path
         d="m 128.076,208.454 c 0,8.397 -3.401,16.01 -8.915,21.524 -5.513,5.515 -13.126,8.917 -21.5222,8.919 h -0.0061 c -8.0721,0 -15.8136,-3.206 -21.5224,-8.913 l -0.0041,-0.004 c -5.7078,-5.708 -8.915,-13.449 -8.9165,-21.52 v -0.006 c 0,-8.083 3.2126,-15.823 8.9166,-21.527 5.704,-5.704 13.4439,-8.916 21.5265,-8.916 h 8e-4 c 16.8134,0 30.4424,13.63 30.4424,30.443 z"
         style="fill:none;fill-opacity:0;stroke:#1b4555;stroke-width:6.31403px;stroke-opacity:0.00104059"
         id="path7655" /><path
         d="m 127.959,208.343 c 0,8.393 -3.399,16.008 -8.915,21.525 -5.515,5.516 -13.129,8.917 -21.5223,8.918 h -0.0062 c -8.072,0 -15.8135,-3.206 -21.5223,-8.912 l -0.0042,-0.005 c -5.7077,-5.707 -8.9149,-13.448 -8.9164,-21.52 v -0.006 c 1e-4,-8.087 3.215,-15.825 8.9167,-21.527 5.7017,-5.701 13.44,-8.916 21.5265,-8.916 h 7e-4 c 16.8125,0 30.4425,13.63 30.4425,30.443 z"
         style="fill:none;fill-opacity:0;stroke:#1b4555;stroke-width:6.31403px;stroke-opacity:0.00149841"
         id="path7656" /><path
         d="m 127.821,208.212 c 0,8.389 -3.397,16.005 -8.915,21.525 -5.518,5.519 -13.134,8.916 -21.5227,8.918 h -0.0062 c -8.072,0 -15.8135,-3.206 -21.5223,-8.913 l -0.0042,-0.004 c -5.7077,-5.708 -8.9149,-13.449 -8.9163,-21.52 v -0.006 c 0,-8.091 3.2177,-15.828 8.9167,-21.527 5.6989,-5.699 13.4355,-8.916 21.5264,-8.916 h 7e-4 c 16.8129,0 30.4429,13.63 30.4429,30.443 z"
         style="fill:none;fill-opacity:0;stroke:#1b4555;stroke-width:6.31403px;stroke-opacity:0.00203953"
         id="path7657" /><path
         d="m 127.661,208.061 c 0,8.383 -3.393,16.002 -8.915,21.524 -5.521,5.523 -13.139,8.917 -21.5225,8.919 h -0.0061 c -8.0721,0 -15.8135,-3.206 -21.5223,-8.913 l -0.0042,-0.004 c -5.7077,-5.708 -8.9148,-13.449 -8.9163,-21.521 v -0.006 c 10e-5,-8.096 3.2209,-15.83 8.9168,-21.526 5.6958,-5.696 13.4303,-8.916 21.5264,-8.916 h 7e-4 c 16.8125,0 30.4425,13.63 30.4425,30.443 z"
         style="fill:none;fill-opacity:0;stroke:#1b4555;stroke-width:6.31403px;stroke-opacity:0.00266389"
         id="path7658" /><path
         d="m 127.48,207.889 c 0,8.378 -3.39,15.999 -8.915,21.525 -5.525,5.526 -13.145,8.917 -21.5225,8.919 h -0.0061 c -8.0721,-0.001 -15.8136,-3.207 -21.5223,-8.913 l -0.0042,-0.004 c -5.7077,-5.708 -8.9148,-13.449 -8.9162,-21.521 v -0.006 c 1e-4,-8.102 3.2244,-15.834 8.9168,-21.526 5.6923,-5.693 13.4244,-8.917 21.5264,-8.917 h 7e-4 c 16.8134,0.001 30.4424,13.63 30.4424,30.443 z"
         style="fill:none;fill-opacity:0;stroke:#1b4555;stroke-width:6.31403px;stroke-opacity:0.00337147"
         id="path7659" /><path
         d="m 127.278,207.698 c 0,8.371 -3.386,15.995 -8.915,21.525 -5.529,5.529 -13.152,8.917 -21.5228,8.918 H 96.834 c -8.072,0 -15.8135,-3.206 -21.5222,-8.913 l -0.0041,-0.004 C 69.6,223.516 66.3929,215.775 66.3915,207.703 v -0.006 c 2e-4,-8.108 3.2284,-15.838 8.9168,-21.526 5.6884,-5.688 13.4178,-8.916 21.5264,-8.916 h 6e-4 c 16.8127,0 30.4427,13.63 30.4427,30.443 z"
         style="fill:none;fill-opacity:0;stroke:#1b4555;stroke-width:6.31403px;stroke-opacity:0.00416236"
         id="path7660" /><path
         d="m 127.054,207.486 c 0,8.364 -3.381,15.991 -8.915,21.525 -5.533,5.534 -13.159,8.917 -21.5225,8.918 h -0.0061 c -8.072,0 -15.8135,-3.206 -21.5221,-8.913 l -0.0042,-0.004 c -5.7077,-5.708 -8.9147,-13.449 -8.9161,-21.521 v -0.006 c 2e-4,-8.115 3.2329,-15.842 8.9169,-21.526 5.6839,-5.683 13.4105,-8.916 21.5263,-8.916 h 6e-4 c 16.8132,0 30.4422,13.63 30.4422,30.443 z"
         style="fill:none;fill-opacity:0;stroke:#1b4555;stroke-width:6.31403px;stroke-opacity:0.00503642"
         id="path7661" /><path
         d="m 126.81,207.254 c 0,8.356 -3.377,15.986 -8.915,21.525 -5.538,5.539 -13.168,8.917 -21.5234,8.919 h -0.0061 c -8.072,-0.001 -15.8135,-3.207 -21.5221,-8.913 l -0.0042,-0.005 c -5.7076,-5.708 -8.9146,-13.449 -8.916,-21.521 v -0.006 c 3e-4,-8.123 3.2377,-15.846 8.9169,-21.525 5.6792,-5.679 13.4026,-8.917 21.5263,-8.917 h 6e-4 c 16.813,0.001 30.443,13.63 30.443,30.443 z"
         style="fill:none;fill-opacity:0;stroke:#1b4555;stroke-width:6.31403px;stroke-opacity:0.00599377"
         id="path7662" /><path
         d="m 126.543,207.002 c 0,8.348 -3.371,15.981 -8.914,21.525 -5.544,5.544 -13.177,8.917 -21.5236,8.919 h -0.0061 c -8.072,-0.001 -15.8135,-3.207 -21.5221,-8.914 l -0.0042,-0.004 c -5.7076,-5.708 -8.9145,-13.449 -8.9158,-21.521 v -0.006 c 3e-4,-8.132 3.2429,-15.852 8.9169,-21.525 5.674,-5.674 13.3939,-8.917 21.5262,-8.917 h 7e-4 c 16.813,0.001 30.442,13.63 30.442,30.443 z"
         style="fill:none;fill-opacity:0;stroke:#1b4555;stroke-width:6.31403px;stroke-opacity:0.00703436"
         id="path7663" /><path
         d="m 126.256,206.73 c 0,8.338 -3.366,15.975 -8.915,21.525 -5.549,5.55 -13.185,8.917 -21.5231,8.918 h -0.0061 c -8.072,0 -15.8134,-3.206 -21.522,-8.913 l -0.0042,-0.004 c -5.7076,-5.708 -8.9145,-13.449 -8.9158,-21.521 v -0.006 c 4e-4,-8.142 3.2487,-15.858 8.917,-21.526 5.6684,-5.668 13.3845,-8.916 21.5262,-8.916 h 6e-4 c 16.8134,0 30.4424,13.63 30.4424,30.443 z"
         style="fill:none;fill-opacity:0;stroke:#1b4555;stroke-width:6.31403px;stroke-opacity:0.00815819"
         id="path7664" /><path
         d="m 125.948,206.438 c 0,8.328 -3.36,15.969 -8.916,21.525 -5.555,5.556 -13.195,8.917 -21.5229,8.918 H 95.503 c -8.072,0 -15.8134,-3.206 -21.522,-8.913 l -0.0042,-0.004 c -5.7075,-5.708 -8.9144,-13.45 -8.9156,-21.521 v -0.006 c 4e-4,-8.152 3.2548,-15.864 8.9171,-21.526 5.6623,-5.662 13.3744,-8.916 21.5261,-8.916 h 5e-4 c 16.8131,0 30.4431,13.63 30.4431,30.443 z"
         style="fill:none;fill-opacity:0;stroke:#1b4555;stroke-width:6.31403px;stroke-opacity:0.00936525"
         id="path7665" /><path
         d="m 125.618,206.126 c 0,8.317 -3.354,15.962 -8.916,21.525 -5.561,5.562 -13.206,8.916 -21.523,8.918 h -0.0061 c -8.072,-10e-4 -15.8134,-3.207 -21.5219,-8.914 l -0.0042,-0.004 c -5.7075,-5.708 -8.9144,-13.449 -8.9155,-21.521 v -0.006 c 4e-4,-8.162 3.2613,-15.87 8.9171,-21.526 5.6559,-5.655 13.3637,-8.916 21.526,-8.916 h 6e-4 c 16.813,0.001 30.443,13.63 30.443,30.444 z"
         style="fill:none;fill-opacity:0;stroke:#1b4555;stroke-width:6.31403px;stroke-opacity:0.0106555"
         id="path7666" /><path
         d="m 125.266,205.793 c 0,8.306 -3.346,15.956 -8.915,21.525 -5.568,5.569 -13.218,8.917 -21.5234,8.918 h -0.0061 c -8.072,0 -15.8134,-3.207 -21.5219,-8.914 l -0.0042,-0.004 C 67.588,221.61 64.3812,213.869 64.3801,205.797 v -0.006 c 5e-4,-8.174 3.2682,-15.877 8.9172,-21.525 5.649,-5.649 13.3522,-8.916 21.5259,-8.916 h 6e-4 c 16.8132,0 30.4422,13.63 30.4422,30.443 z"
         style="fill:none;fill-opacity:0;stroke:#1b4555;stroke-width:6.31403px;stroke-opacity:0.0120291"
         id="path7667" /><path
         d="m 124.894,205.44 c 0,8.294 -3.34,15.949 -8.915,21.525 -5.576,5.577 -13.231,8.917 -21.5242,8.918 h -0.006 c -8.072,0 -15.8134,-3.207 -21.5218,-8.914 l -0.0042,-0.004 c -5.7074,-5.708 -8.9141,-13.449 -8.9152,-21.521 v -0.006 c 6e-4,-8.186 3.2756,-15.884 8.9173,-21.525 5.6417,-5.641 13.34,-8.916 21.5259,-8.916 h 5e-4 c 16.8127,0 30.4427,13.63 30.4427,30.443 z"
         style="fill:none;fill-opacity:0;stroke:#1b4555;stroke-width:6.31403px;stroke-opacity:0.013486"
         id="path7668" /><path
         d="m 124.5,205.067 c 0,8.281 -3.332,15.941 -8.915,21.525 -5.584,5.585 -13.243,8.917 -21.5242,8.918 h -0.006 c -8.072,0 -15.8133,-3.207 -21.5217,-8.914 l -0.0042,-0.004 c -5.7074,-5.708 -8.9141,-13.449 -8.915,-21.521 v -0.006 c 6e-4,-8.199 3.2833,-15.892 8.9173,-21.525 5.634,-5.634 13.3272,-8.916 21.5258,-8.916 h 5e-4 c 16.8135,0 30.4425,13.63 30.4425,30.443 z"
         style="fill:none;fill-opacity:0;stroke:#1b4555;stroke-width:6.31403px;stroke-opacity:0.015026"
         id="path7669" /><path
         d="m 124.085,204.674 c 0,8.268 -3.324,15.933 -8.915,21.525 -5.592,5.593 -13.257,8.917 -21.5245,8.918 h -0.006 c -8.072,0 -15.8133,-3.207 -21.5217,-8.914 l -0.0041,-0.004 c -5.7073,-5.708 -8.914,-13.449 -8.9149,-21.521 v -0.006 c 7e-4,-8.212 3.2916,-15.9 8.9174,-21.525 5.6259,-5.626 13.3137,-8.916 21.5257,-8.916 h 5e-4 c 16.8126,0 30.4426,13.63 30.4426,30.443 z"
         style="fill:none;fill-opacity:0;stroke:#1b4555;stroke-width:6.31403px;stroke-opacity:0.0166493"
         id="path7670" /><path
         d="m 123.649,204.261 c 0,8.253 -3.315,15.924 -8.916,21.525 -5.6,5.601 -13.271,8.917 -21.5241,8.918 h -0.006 c -8.072,-0.001 -15.8132,-3.207 -21.5216,-8.914 l -0.0042,-0.005 c -5.7072,-5.708 -8.9138,-13.449 -8.9146,-21.521 v -0.006 c 7e-4,-8.226 3.3002,-15.908 8.9175,-21.525 5.6173,-5.616 13.2994,-8.915 21.5256,-8.915 h 4e-4 c 16.813,0 30.443,13.63 30.443,30.443 z"
         style="fill:none;fill-opacity:0;stroke:#1b4555;stroke-width:6.31403px;stroke-opacity:0.0183559"
         id="path7671" /><path
         d="m 123.191,203.827 c 0,8.239 -3.306,15.916 -8.915,21.526 -5.61,5.61 -13.287,8.917 -21.5249,8.918 H 92.745 c -8.072,-10e-4 -15.8132,-3.208 -21.5215,-8.915 l -0.0042,-0.004 c -5.7072,-5.708 -8.9137,-13.45 -8.9145,-21.522 v -0.006 c 9e-4,-8.24 3.3093,-15.916 8.9177,-21.524 5.6083,-5.608 13.2845,-8.916 21.5255,-8.916 h 4e-4 c 16.8126,0.001 30.4426,13.63 30.4426,30.443 z"
         style="fill:none;fill-opacity:0;stroke:#1b4555;stroke-width:6.31403px;stroke-opacity:0.0201457"
         id="path7672" /><path
         d="m 122.712,203.374 c 0,8.223 -3.297,15.906 -8.915,21.526 -5.619,5.619 -13.302,8.916 -21.5251,8.917 h -0.0061 c -8.0719,-0.001 -15.8131,-3.207 -21.5214,-8.915 l -0.0042,-0.004 c -5.7071,-5.708 -8.9136,-13.449 -8.9143,-21.521 v -0.007 c 0.001,-8.256 3.3188,-15.925 8.9177,-21.524 5.599,-5.598 13.2689,-8.915 21.5255,-8.915 h 3e-4 c 16.8136,0 30.4426,13.63 30.4426,30.443 z"
         style="fill:none;fill-opacity:0;stroke:#1b4555;stroke-width:6.31403px;stroke-opacity:0.0220187"
         id="path7673" /><path
         d="m 122.212,202.9 c 0,8.207 -3.287,15.897 -8.916,21.526 -5.628,5.629 -13.3179,8.917 -21.5246,8.917 h -0.006 c -8.072,-10e-4 -15.8132,-3.207 -21.5214,-8.915 l -0.0042,-0.004 c -5.707,-5.708 -8.9134,-13.449 -8.914,-21.521 v -0.007 c 10e-4,-8.272 3.3286,-15.935 8.9178,-21.524 5.5891,-5.588 13.2525,-8.915 21.5253,-8.915 h 3e-4 c 16.8128,0 30.4428,13.63 30.4428,30.443 z"
         style="fill:none;fill-opacity:0;stroke:#1b4555;stroke-width:6.31403px;stroke-opacity:0.023975"
         id="path7674" /><path
         d="m 121.691,202.406 c 0,8.19 -3.277,15.887 -8.916,21.526 -5.639,5.639 -13.3356,8.917 -21.5254,8.917 h -0.006 c -8.072,-10e-4 -15.8131,-3.207 -21.5213,-8.915 l -0.0042,-0.004 c -5.707,-5.708 -8.9133,-13.45 -8.9138,-21.522 v -0.006 c 0.0011,-8.289 3.3389,-15.945 8.9179,-21.524 5.579,-5.578 13.2355,-8.915 21.5252,-8.915 h 3e-4 c 16.8133,0 30.4433,13.63 30.4433,30.443 z"
         style="fill:none;fill-opacity:0;stroke:#1b4555;stroke-width:6.31403px;stroke-opacity:0.0260146"
         id="path7675" /><path
         d="m 121.148,201.892 c 0,8.173 -3.267,15.876 -8.916,21.526 -5.65,5.65 -13.3533,8.917 -21.5255,8.917 h -0.006 c -8.0719,-0.001 -15.8131,-3.208 -21.5211,-8.915 l -0.0042,-0.004 c -5.707,-5.709 -8.9132,-13.45 -8.9137,-21.522 v -0.006 c 0.0012,-8.307 3.3497,-15.956 8.918,-21.524 5.5684,-5.567 13.2179,-8.915 21.5252,-8.915 h 2e-4 c 16.8131,0 30.4431,13.63 30.4431,30.443 z"
         style="fill:none;fill-opacity:0;stroke:#1b4555;stroke-width:6.31403px;stroke-opacity:0.0281374"
         id="path7676" /><path
         d="m 120.584,201.358 c 0,8.154 -3.256,15.865 -8.916,21.526 -5.661,5.661 -13.3719,8.917 -21.5259,8.917 h -0.006 c -8.0719,-10e-4 -15.813,-3.208 -21.521,-8.915 l -0.0042,-0.005 c -5.7069,-5.708 -8.913,-13.45 -8.9134,-21.522 v -0.006 c 0.0012,-8.325 3.3608,-15.967 8.9181,-21.523 5.5573,-5.557 13.1995,-8.915 21.525,-8.915 h 2e-4 c 16.8132,0 30.4432,13.63 30.4432,30.443 z"
         style="fill:none;fill-opacity:0;stroke:#1b4555;stroke-width:6.31403px;stroke-opacity:0.0303434"
         id="path7677" /><path
         d="m 119.998,200.804 c 0,8.135 -3.244,15.854 -8.916,21.526 -5.672,5.672 -13.3905,8.916 -21.5256,8.917 h -0.0059 c -8.072,-0.001 -15.813,-3.208 -21.521,-8.916 l -0.0042,-0.004 c -5.7068,-5.709 -8.9129,-13.45 -8.9132,-21.522 v -0.006 c 0.0014,-8.345 3.3724,-15.979 8.9183,-21.524 5.5458,-5.545 13.1804,-8.914 21.5249,-8.914 h 1e-4 c 16.8136,0 30.4426,13.629 30.4426,30.443 z"
         style="fill:none;fill-opacity:0;stroke:#1b4555;stroke-width:6.31403px;stroke-opacity:0.0326327"
         id="path7678" /><path
         d="m 119.392,200.229 c 0,8.116 -3.232,15.842 -8.917,21.526 -5.684,5.685 -13.4102,8.917 -21.5256,8.917 h -0.0059 c -8.0719,-0.001 -15.8129,-3.208 -21.5209,-8.916 l -0.0041,-0.004 c -5.7068,-5.709 -8.9128,-13.45 -8.913,-21.522 v -0.006 c 0.0015,-8.364 3.3844,-15.99 8.9184,-21.523 5.534,-5.533 13.1606,-8.915 21.5248,-8.915 h 1e-4 c 16.8132,0 30.4432,13.63 30.4432,30.443 z"
         style="fill:none;fill-opacity:0;stroke:#1b4555;stroke-width:6.31403px;stroke-opacity:0.0350052"
         id="path7679" /><path
         d="m 118.764,199.634 c 0,8.096 -3.22,15.83 -8.917,21.527 -5.696,5.696 -13.4308,8.916 -21.5258,8.917 h -0.006 c -8.0719,-0.002 -15.8128,-3.209 -21.5207,-8.917 l -0.0042,-0.004 c -5.7066,-5.709 -8.9126,-13.45 -8.9127,-21.522 v -0.006 c 0.0016,-8.385 3.3968,-16.002 8.9185,-21.523 5.5217,-5.521 13.1401,-8.915 21.5247,-8.915 v 0 c 16.8132,0 30.4432,13.63 30.4432,30.443 z"
         style="fill:none;fill-opacity:0;stroke:#1b4555;stroke-width:6.31403px;stroke-opacity:0.037461"
         id="path7680" /><path
         d="m 118.115,199.02 c 0,8.074 -3.208,15.817 -8.917,21.526 -5.709,5.709 -13.4524,8.917 -21.5264,8.917 h -0.0059 c -8.0719,-0.002 -15.8129,-3.209 -21.5207,-8.917 l -0.0041,-0.004 c -5.7066,-5.709 -8.9124,-13.45 -8.9124,-21.522 v -0.007 c 0.0016,-8.405 3.4096,-16.014 8.9186,-21.522 5.5089,-5.508 13.1189,-8.915 21.5245,-8.915 v 0 c 16.8134,0 30.4434,13.63 30.4434,30.444 z"
         style="fill:none;fill-opacity:0;stroke:#1b4555;stroke-width:6.31403px;stroke-opacity:0.04"
         id="path7681" /></g><path
       id="circle7065"
       style="display:inline;fill:none;fill-opacity:0;stroke:#1b4555;stroke-width:6.31403;stroke-opacity:0"
       inkscape:label="shadow_outer"
       d="M 128.34203,208.70582 A 30.443144,30.443144 0 0 1 97.898884,239.14896 30.443144,30.443144 0 0 1 67.455735,208.70582 30.443144,30.443144 0 0 1 97.898884,178.26268 30.443144,30.443144 0 0 1 128.34203,208.70582 Z" /><path
       id="path7196"
       style="display:inline;fill:none;fill-opacity:0;stroke:#1b4555;stroke-width:6.31403;stroke-opacity:0.04"
       inkscape:label="shadow_outer_start"
       d="M 118.11474,199.01962 A 30.443144,30.443144 0 0 1 87.6716,229.46277 30.443144,30.443144 0 0 1 57.228456,199.01962 30.443144,30.443144 0 0 1 87.6716,168.57648 a 30.443144,30.443144 0 0 1 30.44314,30.44314 z" /><circle
       style="fill:none;fill-opacity:1;stroke:url(#linearGradient7064);stroke-width:4.81008;stroke-dasharray:none;stroke-opacity:1"
       id="circle7064"
       cx="88.200768"
       cy="199.4165"
       r="23.152393" /><path
       id="circle7042"
       style="display:inline;fill:none;stroke:url(#linearGradient7042);stroke-width:6.31403"
       inkscape:label="outer"
       d="M 118.11474,199.01962 A 30.443144,30.443144 0 0 1 87.6716,229.46277 30.443144,30.443144 0 0 1 57.228456,199.01962 30.443144,30.443144 0 0 1 87.6716,168.57648 a 30.443144,30.443144 0 0 1 30.44314,30.44314 z" /><circle
       style="display:inline;fill:none;fill-opacity:1;stroke:#1b4555;stroke-width:2.9024;stroke-dasharray:none;stroke-opacity:1"
       id="path7040"
       cx="87.6716"
       cy="199.01962"
       r="27.987942" /><circle
       style="display:inline;fill:none;fill-opacity:1;stroke:url(#linearGradient7044);stroke-width:5;stroke-dasharray:none;stroke-opacity:1"
       id="circle7043"
       cx="87.6716"
       cy="199.01962"
       r="24.066483" /><rect
       style="display:inline;fill:#1b4555;fill-opacity:1;stroke:none;stroke-width:4.61422;stroke-dasharray:none;stroke-opacity:1"
       id="rect7044"
       width="3.0429261"
       height="11.110269"
       x="86.150139"
       y="170.37483"
       ry="1.521463"
       inkscape:transform-center-y="-23.089804" /><rect
       style="display:inline;fill:#1b4555;fill-opacity:1;stroke:none;stroke-width:4.61422;stroke-dasharray:none;stroke-opacity:1"
       id="rect7052"
       width="3.0429261"
       height="11.110269"
       x="173.91426"
       y="99.875435"
       ry="1.521463"
       inkscape:transform-center-y="-19.996357"
       transform="rotate(30)"
       inkscape:transform-center-x="-11.544907" /><rect
       style="display:inline;fill:#1b4555;fill-opacity:1;stroke:none;stroke-width:4.61422;stroke-dasharray:none;stroke-opacity:1"
       id="rect7053"
       width="3.0429261"
       height="11.110269"
       x="214.67052"
       y="-5.0608902"
       ry="1.521463"
       inkscape:transform-center-y="-11.544901"
       transform="rotate(60)"
       inkscape:transform-center-x="-19.99636" /><rect
       style="display:inline;fill:#1b4555;fill-opacity:1;stroke:none;stroke-width:4.61422;stroke-dasharray:none;stroke-opacity:1"
       id="rect7054"
       width="3.0429261"
       height="11.110269"
       x="197.49831"
       y="-116.31654"
       ry="1.521463"
       transform="rotate(90)"
       inkscape:transform-center-x="-23.089807" /><rect
       style="display:inline;fill:#1b4555;fill-opacity:1;stroke:none;stroke-width:4.61422;stroke-dasharray:none;stroke-opacity:1"
       id="rect7055"
       width="3.0429261"
       height="11.110269"
       x="126.99891"
       y="-204.08066"
       ry="1.521463"
       transform="rotate(120)"
       inkscape:transform-center-x="-19.996358"
       inkscape:transform-center-y="11.5449" /><rect
       style="display:inline;fill:#1b4555;fill-opacity:1;stroke:none;stroke-width:4.61422;stroke-dasharray:none;stroke-opacity:1"
       id="rect7056"
       width="3.0429261"
       height="11.110269"
       x="22.062584"
       y="-244.83691"
       ry="1.521463"
       transform="rotate(150)"
       inkscape:transform-center-x="-11.544903"
       inkscape:transform-center-y="19.996355" /><rect
       style="display:inline;fill:#1b4555;fill-opacity:1;stroke:none;stroke-width:4.61422;stroke-dasharray:none;stroke-opacity:1"
       id="rect7057"
       width="3.0429261"
       height="11.110269"
       x="-89.193069"
       y="-227.6647"
       ry="1.521463"
       transform="scale(-1)"
       inkscape:transform-center-x="-3.329728e-06"
       inkscape:transform-center-y="23.089801" /><rect
       style="display:inline;fill:#1b4555;fill-opacity:1;stroke:none;stroke-width:4.61422;stroke-dasharray:none;stroke-opacity:1"
       id="rect7058"
       width="3.0429261"
       height="11.110269"
       x="-176.95718"
       y="-157.16531"
       ry="1.521463"
       transform="rotate(-150)"
       inkscape:transform-center-x="11.544902"
       inkscape:transform-center-y="19.996359" /><rect
       style="display:inline;fill:#1b4555;fill-opacity:1;stroke:none;stroke-width:4.61422;stroke-dasharray:none;stroke-opacity:1"
       id="rect7059"
       width="3.0429261"
       height="11.110269"
       x="-217.71344"
       y="-52.228989"
       ry="1.521463"
       transform="rotate(-120)"
       inkscape:transform-center-x="19.996358"
       inkscape:transform-center-y="11.544903" /><rect
       style="display:inline;fill:#1b4555;fill-opacity:1;stroke:none;stroke-width:4.61422;stroke-dasharray:none;stroke-opacity:1"
       id="rect7060"
       width="3.0429261"
       height="11.110269"
       x="-200.54123"
       y="59.026665"
       ry="1.521463"
       transform="rotate(-90)"
       inkscape:transform-center-x="23.089804"
       inkscape:transform-center-y="-2.0580074e-06" /><rect
       style="display:inline;fill:#1b4555;fill-opacity:1;stroke:none;stroke-width:4.61422;stroke-dasharray:none;stroke-opacity:1"
       id="rect7061"
       width="3.0429261"
       height="11.110269"
       x="-130.04184"
       y="146.79079"
       ry="1.521463"
       transform="rotate(-60)"
       inkscape:transform-center-x="19.996354"
       inkscape:transform-center-y="-11.544897" /><rect
       style="display:inline;fill:#1b4555;fill-opacity:1;stroke:none;stroke-width:4.61422;stroke-dasharray:none;stroke-opacity:1"
       id="rect7062"
       width="3.0429261"
       height="11.110269"
       x="-25.105515"
       y="187.54704"
       ry="1.521463"
       transform="rotate(-30)"
       inkscape:transform-center-x="11.544903"
       inkscape:transform-center-y="-19.996352" /><circle
       style="display:inline;fill:#1b4555;fill-opacity:1;stroke:none;stroke-width:4.99999;stroke-dasharray:none;stroke-opacity:1"
       id="path7062"
       cx="87.671593"
       cy="199.01962"
       r="2.645457" /><path
       style="display:inline;fill:#1b4555;fill-opacity:0.1;stroke:none;stroke-width:4.99999;stroke-dasharray:none;stroke-opacity:1"
       d="m 87.266002,199.55348 0.299519,-12.21159 h 0.841899 l 0.343456,12.21159 z"
       id="path7063"
       sodipodi:nodetypes="ccccc" /><path
       style="display:inline;fill:#1b4555;fill-opacity:1;stroke:none;stroke-width:6.36798;stroke-dasharray:none;stroke-opacity:1"
       d="m 91.985178,201.71837 -1.065371,1.13251 -16.518016,-15.90592 0.410805,-0.42276 z"
       id="path7064"
       sodipodi:nodetypes="ccccc" /></g></svg>
